<svg width="606" height="330" viewBox="0 0 606 330" fill="none" xmlns="http://www.w3.org/2000/svg">
<path d="M130.848 145.455V0H148.461V72.1591H150.166L215.507 0H238.518L177.439 65.625L238.518 145.455H217.211L166.643 77.8409L148.461 98.2955V145.455H130.848Z" fill="#FF008A"/>
<path d="M237.703 148.155C234.903 148.155 231.803 147.355 228.403 145.755C224.803 144.355 223.003 141.955 223.003 138.555C223.003 134.355 224.903 129.055 228.703 122.655C232.503 116.255 237.203 109.655 242.803 102.855C248.203 96.0545 253.503 89.6545 258.703 83.6545C263.903 77.6545 267.803 72.9545 270.403 69.5545C272.603 69.7545 275.203 69.8545 278.203 69.8545C281.403 69.8545 284.203 69.7545 286.603 69.5545C283.803 72.9545 280.103 77.2545 275.503 82.4545C271.103 87.6545 266.403 93.2545 261.403 99.2545C256.603 105.055 251.903 110.755 247.303 116.355C242.903 121.955 239.303 126.955 236.503 131.355C233.703 135.755 232.303 138.955 232.303 140.955C232.303 142.355 232.903 143.355 234.103 143.955C235.303 144.555 237.303 144.855 240.103 144.855C244.903 144.855 250.203 143.055 256.003 139.455C262.003 135.655 267.803 131.155 273.403 125.955C279.003 120.755 284.003 115.855 288.403 111.255C292.803 106.455 295.903 102.955 297.703 100.755L300.103 102.855C298.303 104.855 295.203 108.355 290.803 113.355C286.603 118.155 281.503 123.255 275.503 128.655C269.703 134.055 263.503 138.655 256.903 142.455C250.503 146.255 244.103 148.155 237.703 148.155ZM297.703 46.7545C295.303 46.7545 293.503 46.0545 292.303 44.6545C291.103 43.0545 290.503 41.2545 290.503 39.2546C290.503 37.0545 291.703 34.7545 294.103 32.3545C296.503 29.9545 299.003 28.7545 301.603 28.7545C304.403 28.7545 306.403 29.5545 307.603 31.1545C308.803 32.5545 309.403 33.9545 309.403 35.3545C309.403 38.3545 308.203 41.0545 305.803 43.4545C303.403 45.6545 300.703 46.7545 297.703 46.7545Z" fill="#FF008A"/>
<path d="M312.657 145.455V36.3636H328.85V53.4091H330.271C332.543 47.5852 336.213 43.0634 341.279 39.8438C346.345 36.5767 352.43 34.9432 359.532 34.9432C366.729 34.9432 372.719 36.5767 377.501 39.8438C382.33 43.0634 386.094 47.5852 388.793 53.4091H389.93C392.723 47.7746 396.914 43.3002 402.501 39.9858C408.088 36.6241 414.788 34.9432 422.6 34.9432C432.354 34.9432 440.332 37.9972 446.535 44.1051C452.737 50.1657 455.839 59.6117 455.839 72.4432V145.455H439.077V72.4432C439.077 64.3939 436.876 58.6411 432.472 55.1847C428.069 51.7282 422.884 50 416.918 50C409.248 50 403.306 52.3201 399.092 56.9602C394.878 61.553 392.771 67.3769 392.771 74.4318V145.455H375.725V70.7386C375.725 64.536 373.713 59.5407 369.688 55.7528C365.664 51.9176 360.479 50 354.134 50C349.778 50 345.706 51.16 341.918 53.4801C338.178 55.8002 335.147 59.0199 332.827 63.1392C330.555 67.2112 329.418 71.9223 329.418 77.2727V145.455H312.657Z" fill="#FF008A"/>
<path d="M0 181H21.0227L70.4546 301.739H72.1591L121.591 181H142.614V326.455H126.136V215.943H124.716L79.2614 326.455H63.3523L17.8977 215.943H16.4773V326.455H0V181Z" fill="#FF008A"/>
<path d="M154.316 329.155C151.516 329.155 148.416 328.355 145.016 326.755C141.416 325.355 139.616 322.955 139.616 319.555C139.616 315.355 141.516 310.055 145.316 303.655C149.116 297.255 153.816 290.655 159.416 283.855C164.816 277.055 170.116 270.655 175.316 264.655C180.516 258.655 184.416 253.955 187.016 250.555C189.216 250.755 191.816 250.855 194.816 250.855C198.016 250.855 200.816 250.755 203.216 250.555C200.416 253.955 196.716 258.255 192.116 263.455C187.716 268.655 183.016 274.255 178.016 280.255C173.216 286.055 168.516 291.755 163.916 297.355C159.516 302.955 155.916 307.955 153.116 312.355C150.316 316.755 148.916 319.955 148.916 321.955C148.916 323.355 149.516 324.355 150.716 324.955C151.916 325.555 153.916 325.855 156.716 325.855C161.516 325.855 166.816 324.055 172.616 320.455C178.616 316.655 184.416 312.155 190.016 306.955C195.616 301.755 200.616 296.855 205.016 292.255C209.416 287.455 212.516 283.955 214.316 281.755L216.716 283.855C214.916 285.855 211.816 289.355 207.416 294.355C203.216 299.155 198.116 304.255 192.116 309.655C186.316 315.055 180.116 319.655 173.516 323.455C167.116 327.255 160.716 329.155 154.316 329.155ZM214.316 227.755C211.916 227.755 210.116 227.055 208.916 225.655C207.716 224.055 207.116 222.255 207.116 220.255C207.116 218.055 208.316 215.755 210.716 213.355C213.116 210.955 215.616 209.755 218.216 209.755C221.016 209.755 223.016 210.555 224.216 212.155C225.416 213.555 226.016 214.955 226.016 216.355C226.016 219.355 224.816 222.055 222.416 224.455C220.016 226.655 217.316 227.755 214.316 227.755Z" fill="#FF008A"/>
<path d="M246.032 260.83V326.455H229.27V217.364H245.463V234.409H246.884C249.441 228.869 253.323 224.419 258.532 221.057C263.74 217.648 270.463 215.943 278.702 215.943C286.088 215.943 292.552 217.458 298.091 220.489C303.631 223.472 307.94 228.017 311.017 234.125C314.095 240.186 315.634 247.856 315.634 257.136V326.455H298.873V258.273C298.873 249.703 296.647 243.027 292.196 238.244C287.746 233.415 281.638 231 273.872 231C268.522 231 263.74 232.16 259.526 234.48C255.359 236.8 252.069 240.186 249.654 244.636C247.239 249.087 246.032 254.485 246.032 260.83Z" fill="#FF008A"/>
<path d="M423.535 241.795L408.478 246.057C407.531 243.547 406.135 241.109 404.288 238.741C402.489 236.327 400.027 234.338 396.902 232.776C393.777 231.213 389.776 230.432 384.899 230.432C378.223 230.432 372.659 231.971 368.208 235.048C363.805 238.079 361.603 241.938 361.603 246.625C361.603 250.792 363.118 254.082 366.149 256.497C369.179 258.912 373.914 260.924 380.353 262.534L396.547 266.511C406.3 268.879 413.568 272.501 418.35 277.378C423.133 282.207 425.524 288.434 425.524 296.057C425.524 302.307 423.725 307.894 420.126 312.818C416.575 317.742 411.603 321.625 405.211 324.466C398.819 327.307 391.386 328.727 382.91 328.727C371.783 328.727 362.574 326.313 355.282 321.483C347.991 316.653 343.374 309.598 341.433 300.318L357.342 296.341C358.857 302.212 361.722 306.616 365.936 309.551C370.197 312.487 375.761 313.955 382.626 313.955C390.439 313.955 396.641 312.297 401.234 308.983C405.874 305.621 408.194 301.597 408.194 296.909C408.194 293.121 406.868 289.949 404.217 287.392C401.565 284.788 397.493 282.847 392.001 281.568L373.819 277.307C363.829 274.939 356.49 271.27 351.802 266.298C347.162 261.279 344.842 255.006 344.842 247.477C344.842 241.322 346.57 235.877 350.027 231.142C353.53 226.407 358.289 222.69 364.302 219.991C370.363 217.293 377.228 215.943 384.899 215.943C395.694 215.943 404.17 218.311 410.325 223.045C416.528 227.78 420.931 234.03 423.535 241.795Z" fill="#FF008A"/>
<path d="M449.514 329.155C440.114 329.155 433.914 327.055 430.914 322.855C427.914 318.455 426.414 313.855 426.414 309.055C426.414 300.855 428.514 293.255 432.714 286.255C436.914 279.055 442.314 272.655 448.914 267.055C455.514 261.455 462.314 257.155 469.314 254.155C476.514 250.955 482.914 249.355 488.514 249.355C492.514 249.355 495.714 249.955 498.114 251.155C500.514 252.155 501.714 254.355 501.714 257.755C501.714 260.955 499.814 264.355 496.014 267.955C492.214 271.555 487.414 275.055 481.614 278.455C475.814 281.655 469.714 284.655 463.314 287.455C457.114 290.055 451.414 292.155 446.214 293.755C441.014 295.355 437.214 296.155 434.814 296.155C434.814 296.155 434.814 295.655 434.814 294.655C434.814 293.455 434.814 292.855 434.814 292.855C436.614 293.055 439.714 292.455 444.114 291.055C448.714 289.655 453.814 287.855 459.414 285.655C465.014 283.255 470.414 280.555 475.614 277.555C481.014 274.555 485.414 271.355 488.814 267.955C492.414 264.555 494.214 261.255 494.214 258.055C494.214 256.455 493.714 255.055 492.714 253.855C491.914 252.655 490.414 252.055 488.214 252.055C485.014 252.055 481.114 253.655 476.514 256.855C472.114 259.855 467.614 263.855 463.014 268.855C458.414 273.855 454.114 279.155 450.114 284.755C446.114 290.355 442.814 295.755 440.214 300.955C437.814 305.955 436.614 310.155 436.614 313.555C436.614 317.555 437.814 320.555 440.214 322.555C442.614 324.555 446.114 325.555 450.714 325.555C458.714 325.555 466.214 323.655 473.214 319.855C480.414 315.855 486.914 311.255 492.714 306.055C498.514 300.655 503.414 295.655 507.414 291.055C511.414 286.255 514.114 283.155 515.514 281.755C515.514 281.755 515.814 282.055 516.414 282.655C517.214 283.255 517.614 283.555 517.614 283.555C516.214 285.155 513.514 288.355 509.514 293.155C505.514 297.955 500.514 303.155 494.514 308.755C488.514 314.355 481.714 319.155 474.114 323.155C466.514 327.155 458.314 329.155 449.514 329.155Z" fill="#FF008A"/>
<path d="M566.708 249.955C576.708 249.955 581.708 254.755 581.708 264.355C581.708 271.755 580.008 279.355 576.608 287.155C573.208 294.755 568.608 301.755 562.808 308.155C557.008 314.355 550.708 319.455 543.908 323.455C537.108 327.255 530.208 329.155 523.208 329.155C517.808 329.155 513.308 327.855 509.708 325.255C505.908 322.455 504.008 317.955 504.008 311.755C504.008 305.955 505.708 299.555 509.108 292.555C512.508 285.355 517.108 278.555 522.908 272.155C528.908 265.755 535.608 260.455 543.008 256.255C550.608 252.055 558.508 249.955 566.708 249.955ZM570.008 254.155C566.608 254.155 562.608 255.655 558.008 258.655C553.408 261.655 548.708 265.555 543.908 270.355C539.108 275.155 534.608 280.355 530.408 285.955C526.408 291.355 523.108 296.655 520.508 301.855C518.108 307.055 516.908 311.455 516.908 315.055C516.908 319.055 518.008 321.855 520.208 323.455C522.408 324.855 524.908 325.555 527.708 325.555C532.308 325.555 537.508 323.655 543.308 319.855C549.108 315.855 554.708 310.855 560.108 304.855C565.508 298.855 569.908 292.555 573.308 285.955C576.908 279.155 578.708 272.955 578.708 267.355C578.708 262.155 577.808 258.655 576.008 256.855C574.208 255.055 572.208 254.155 570.008 254.155ZM575.408 285.055C576.408 285.055 576.808 285.455 576.608 286.255C576.608 286.855 576.108 287.155 575.108 287.155C574.308 287.155 573.108 288.255 571.508 290.455C570.108 292.455 568.808 294.555 567.608 296.755C566.408 298.955 565.808 300.155 565.808 300.355C565.808 304.955 567.508 307.255 570.908 307.255C574.108 307.255 577.708 305.755 581.708 302.755C585.908 299.755 589.908 296.355 593.708 292.555C597.708 288.555 600.908 285.055 603.308 282.055L605.708 284.155C603.108 287.155 599.808 290.755 595.808 294.955C591.808 298.955 587.608 302.555 583.208 305.755C578.808 308.755 574.708 310.255 570.908 310.255C567.708 310.255 565.508 309.555 564.308 308.155C563.108 306.755 562.508 304.255 562.508 300.655C562.508 295.855 564.108 292.055 567.308 289.255C570.708 286.455 573.408 285.055 575.408 285.055Z" fill="#FF008A"/>
</svg>
